<?xml version="1.0" ?><!DOCTYPE svg  PUBLIC '-//W3C//DTD SVG 1.1//EN'  'http://www.w3.org/Graphics/SVG/1.1/DTD/svg11.dtd'><svg enable-background="new 0 0 128 128" id="Слой_1" version="1.1" viewBox="0 0 128 128" xml:space="preserve" xmlns="http://www.w3.org/2000/svg" xmlns:xlink="http://www.w3.org/1999/xlink"><g><g><g><g><path d="M114.4,68.6V55.3c0-7.6-6.2-13.8-13.8-13.8H22.8C15.2,41.5,9,35.3,9,27.8v72.5c0,7.6,6.2,13.8,13.8,13.8      h77.9c7.6,0,13.8-6.2,13.8-13.8V86.9" fill="#FFFFFF"/></g></g></g><g><g><g><g><path d="M104.4,27.8c0-7.6-6.2-13.7-13.8-13.7H22.8C14.9,14,8.6,20.5,9,28.4c0.3,7.4,6.7,13.1,14.1,13.1h77.5" fill="#F7F7FB"/></g></g></g><g><g><path d="M18.2,40.6c1.6,0.6,3.2,0.9,5,0.9h82.5c1.6,0,3.1,0.3,4.6,0.8v-0.8c0-7.6-6.1-13.7-13.7-13.7l-65.5,0      C23.9,27.8,18.2,33.5,18.2,40.6L18.2,40.6z" fill="#C7D7E2"/></g></g><g><g><path d="M105.4,86.9c-5.3,0-9.5-4.4-9.1-9.8c0.3-4.9,4.6-8.6,9.5-8.6h11.5c1,0,1.8,0.8,1.8,1.8v14.7      c0,1-0.8,1.8-1.8,1.8H105.4z" fill="#E0E292"/></g></g></g><g><g><path d="M22.8,116.3c-1.7,0-3-1.3-3-3V69.5c0-1.7,1.3-3,3-3s3,1.3,3,3v43.7C25.8,114.9,24.4,116.3,22.8,116.3z" fill="#454B54"/></g></g><g><g><path d="M110.3,47.3c-0.3,0-0.7-0.1-1-0.2c-1.1-0.4-2-1.2-2.8-1.8c-0.3-0.3-0.8-0.7-1-0.8H23.1     c-2,0-4.1-0.4-6-1.1c-1.2-0.4-2-1.6-2-2.8c0-8.7,7.1-15.8,15.8-15.8l65.5,0c4.5,0,8.7,1.7,11.8,4.9c3.2,3.2,4.9,7.3,4.9,11.8v2.8     c0,1-0.5,1.9-1.3,2.4C111.5,47.1,110.9,47.3,110.3,47.3z M21.4,38.4c0.6,0.1,1.1,0.1,1.7,0.1h82.5c0.4,0,0.8,0.1,1.2,0.2     c-0.5-1.8-1.4-3.4-2.8-4.8c-2-2-4.7-3.1-7.6-3.1l-65.5,0C26.4,30.8,22.4,34,21.4,38.4z" fill="#454B54"/></g></g><g><g><g><path d="M100.7,44.5H23.1c-9.2,0-16.7-7-17.1-15.9c-0.2-4.6,1.4-9,4.6-12.4c3.2-3.3,7.5-5.2,12.1-5.2h67.9      c9.2,0,16.8,7.5,16.8,16.8c0,1.7-1.3,3-3,3s-3-1.3-3-3c0-5.9-4.8-10.8-10.8-10.8H22.8c-3,0-5.7,1.2-7.8,3.3c-2,2.1-3.1,5-3,7.9      c0.3,5.6,5.3,10.2,11.1,10.2h77.5c1.7,0,3,1.3,3,3S102.3,44.5,100.7,44.5z" fill="#454B54"/></g></g></g><g><g><path d="M117.2,89.9h-11.8c-3.4,0-6.6-1.4-8.9-3.8c-2.3-2.5-3.5-5.7-3.3-9.1c0.4-6.4,5.9-11.4,12.5-11.4h11.5     c2.7,0,4.8,2.2,4.8,4.8v14.7C122,87.7,119.8,89.9,117.2,89.9z M105.7,71.6c-3.4,0-6.3,2.5-6.5,5.8c-0.1,1.7,0.5,3.4,1.7,4.6     c1.2,1.3,2.8,2,4.5,2H116V71.6H105.7z" fill="#454B54"/></g></g><g><g><g><path d="M100.7,117H22.8C13.5,117,6,109.5,6,100.2V27.8c0-1.7,1.3-3,3-3s3,1.3,3,3c0,5.9,4.8,10.8,10.8,10.8      h77.9c9.2,0,16.8,7.5,16.8,16.8v13.3c0,1.7-1.3,3-3,3s-3-1.3-3-3V55.3c0-5.9-4.8-10.8-10.8-10.8H22.8c-4.1,0-7.8-1.5-10.8-3.9      v59.7c0,5.9,4.8,10.8,10.8,10.8h77.9c5.9,0,10.8-4.8,10.8-10.8V86.9c0-1.7,1.3-3,3-3s3,1.3,3,3v13.3      C117.4,109.5,109.9,117,100.7,117z" fill="#454B54"/></g></g></g></g></svg>